<mxfile host="app.diagrams.net" modified="2024-01-20T06:24:36.493Z" agent="Mozilla/5.0 (Macintosh; Intel Mac OS X 10_15_7) AppleWebKit/537.36 (KHTML, like Gecko) Chrome/120.0.0.0 Safari/537.36" version="22.1.18" etag="7_RCHYgGlqNlo1Xpq05-" type="github">
  <diagram name="第 1 页" id="6nVP2N6nmAT499h52arM">
    <mxGraphModel>
      <root>
        <mxCell id="0" />
        <mxCell id="1" parent="0" />
      </root>
    </mxGraphModel>
  </diagram>
</mxfile>
